<svg xmlns="http://www.w3.org/2000/svg" width="800" height="1792" viewBox="0 0 800 1792" role="img">
  <style>
    .wire-text { font-family: "Courier New", monospace; font-size: 14px; fill: #ffffff; }
    .wire-text-secondary { fill: #a0c4e8; }
    .wire-text-disabled { fill: #adb5bd; }
    .wire-text-bold { font-weight: 600; }
    .wire-text-small { font-size: 12px; }
    .wire-text-large { font-size: 18px; }
  </style>
  
  <rect width="100%" height="100%" fill="#1e3a5f" />
  <text x="16" y="31" class="wire-text wire-text-bold">Component Showcase</text><text x="16" y="71" class="wire-text">Standard components that demonstrate theme differences.</text><line x1="16" y1="96" x2="216" y2="96" stroke="#4a7ab0" stroke-width="1" /><rect x="16" y="117" width="768" height="667" fill="#2a4a6f" stroke="#4a7ab0" stroke-width="1" /><text x="32" y="148" class="wire-text wire-text-bold">Buttons</text><g opacity="1">
      <rect x="32" y="161" width="100" height="36" rx="4" fill="#ffffff" stroke="#4a7ab0" stroke-width="1" />
      <text x="82" y="184" text-anchor="middle" class="wire-text" fill="#1e3a5f">Primary</text>
    </g><g opacity="1">
      <rect x="140" y="161" width="104" height="36" rx="4" fill="#2a4a6f" stroke="#4a7ab0" stroke-width="1" />
      <text x="192" y="184" text-anchor="middle" class="wire-text" fill="#ffffff">Secondary</text>
    </g><g opacity="1">
      <rect x="252" y="161" width="100" height="36" rx="4" fill="#2a4a6f" stroke="#4a7ab0" stroke-width="1" />
      <text x="302" y="184" text-anchor="middle" class="wire-text" fill="#ffffff">Default</text>
    </g><g opacity="0.5">
      <rect x="360" y="161" width="100" height="36" rx="4" fill="#2a4a6f" stroke="#4a7ab0" stroke-width="1" />
      <text x="410" y="184" text-anchor="middle" class="wire-text" fill="#ffffff">Disabled</text>
    </g><rect x="16" y="804" width="768" height="200" fill="#2a4a6f" stroke="#4a7ab0" stroke-width="1" /><text x="32" y="835" class="wire-text wire-text-bold">Form Controls</text><g>
      <rect x="32" y="848" width="200" height="36" rx="4" fill="#2a4a6f" stroke="#4a7ab0" stroke-width="1" />
      <text x="44" y="871" class="wire-text wire-text-secondary">Text input</text>
      
    </g><g>
      <rect x="32" y="888" width="300" height="100" rx="4" fill="#2a4a6f" stroke="#4a7ab0" stroke-width="1" />
      <text x="44" y="908" class="wire-text wire-text-secondary">Multi-line text</text>
      <line x1="312" y1="980" x2="324" y2="980" stroke="#4a7ab0" stroke-width="2" />
      <line x1="318" y1="974" x2="324" y2="980" stroke="#4a7ab0" stroke-width="2" />
    </g><g><rect x="784" y="851" width="18" height="18" rx="2" fill="#2a4a6f" stroke="#4a7ab0" stroke-width="1" /><text x="810" y="865" class="wire-text">Unchecked option</text></g><g><rect x="784" y="879" width="18" height="18" rx="2" fill="#2a4a6f" stroke="#4a7ab0" stroke-width="1" /><path d="M788 888 L792 892 L798 884" stroke="#ffffff" stroke-width="2" fill="none" stroke-linecap="round" stroke-linejoin="round" /><text x="810" y="893" class="wire-text">Checked option</text></g><g><circle cx="793" cy="916" r="9" fill="#2a4a6f" stroke="#4a7ab0" stroke-width="1" /><circle cx="793" cy="916" r="4.5" fill="#ffffff" /><text x="810" y="921" class="wire-text">Radio option A</text></g><g><circle cx="793" cy="944" r="9" fill="#2a4a6f" stroke="#4a7ab0" stroke-width="1" /><text x="810" y="949" class="wire-text">Radio option B</text></g><g><rect x="950" y="848" width="44" height="24" rx="12" fill="#4a7ab0" /><circle cx="962" cy="860" r="10" fill="#1e3a5f" /><text x="1002" y="865" class="wire-text">Toggle off</text></g><g><rect x="950" y="876" width="44" height="24" rx="12" fill="#ffffff" /><circle cx="982" cy="888" r="10" fill="#1e3a5f" /><text x="1002" y="893" class="wire-text">Toggle on</text></g><g>
      <line x1="950" y1="916" x2="1150" y2="916" stroke="#4a7ab0" stroke-width="4" stroke-linecap="round" />
      <line x1="950" y1="916" x2="1050" y2="916" stroke="#ffffff" stroke-width="4" stroke-linecap="round" />
      <circle cx="1050" cy="916" r="8" fill="#ffffff" stroke="#1e3a5f" stroke-width="2" />
    </g><rect x="16" y="1024" width="768" height="128" fill="#2a4a6f" stroke="#4a7ab0" stroke-width="1" /><text x="32" y="1055" class="wire-text wire-text-bold">Progress &amp; Status</text><text x="32" y="1083" class="wire-text">Progress Bars</text><g>
      <rect x="32" y="1092" width="200" height="8" rx="4" fill="#2a4a6f" />
      <rect x="32" y="1092" width="50" height="8" rx="4" fill="#ffffff" />
    </g><g>
      <rect x="32" y="1104" width="200" height="8" rx="4" fill="#2a4a6f" />
      <rect x="32" y="1104" width="100" height="8" rx="4" fill="#ffffff" />
    </g><g>
      <rect x="32" y="1116" width="200" height="8" rx="4" fill="#2a4a6f" />
      <rect x="32" y="1116" width="150" height="8" rx="4" fill="#ffffff" />
    </g><g>
      <rect x="32" y="1128" width="200" height="8" rx="4" fill="#2a4a6f" />
      <rect x="32" y="1128" width="200" height="8" rx="4" fill="#ffffff" />
    </g><text x="784" y="1083" class="wire-text">Badges</text><g>
      <rect x="784" y="1092" width="24" height="24" rx="12" fill="#6c757d" />
      <text x="796" y="1108" text-anchor="middle" class="wire-text wire-text-small" fill="#1e3a5f"></text>
    </g><g>
      <rect x="812" y="1092" width="24" height="24" rx="12" fill="#6c757d" />
      <text x="824" y="1108" text-anchor="middle" class="wire-text wire-text-small" fill="#1e3a5f"></text>
    </g><g>
      <rect x="840" y="1092" width="24" height="24" rx="12" fill="#6c757d" />
      <text x="852" y="1108" text-anchor="middle" class="wire-text wire-text-small" fill="#1e3a5f"></text>
    </g><g>
      <rect x="868" y="1092" width="24" height="24" rx="12" fill="#6c757d" />
      <text x="880" y="1108" text-anchor="middle" class="wire-text wire-text-small" fill="#1e3a5f"></text>
    </g><rect x="16" y="1172" width="768" height="388" fill="#2a4a6f" stroke="#4a7ab0" stroke-width="1" /><text x="32" y="1203" class="wire-text wire-text-bold">Navigation</text><rect x="32" y="1216" width="736" height="184" fill="none" stroke="#4a7ab0" stroke-width="1" /><g>
      <text x="48" y="1439" class="wire-text" fill="#ffffff" style="text-decoration: underline">Link</text>
    </g><g>
      <text x="48" y="1467" class="wire-text" fill="#ffffff" style="text-decoration: underline">Link</text>
    </g><g>
      <text x="48" y="1495" class="wire-text" fill="#ffffff" style="text-decoration: underline">Link</text>
    </g><text x="48" y="1523" class="wire-text">Current Page</text><rect x="16" y="1580" width="768" height="180" fill="#2a4a6f" stroke="#4a7ab0" stroke-width="1" /><text x="32" y="1611" class="wire-text wire-text-bold">Cards</text><rect x="32" y="1624" width="736" height="116" rx="8" fill="#1e3a5f" stroke="#4a7ab0" stroke-width="1"  filter="url(#shadow)" /><text x="48" y="1655" class="wire-text wire-text-bold">Card Title</text><text x="48" y="1679" class="wire-text">Card content goes here with some description text.</text><g opacity="1">
      <rect x="48" y="1688" width="100" height="36" rx="4" fill="#ffffff" stroke="#4a7ab0" stroke-width="1" />
      <text x="98" y="1711" text-anchor="middle" class="wire-text" fill="#1e3a5f">Action</text>
    </g><rect x="780" y="1624" width="-12" height="120" rx="8" fill="#1e3a5f" stroke="#4a7ab0" stroke-width="1"  filter="url(#shadow)" /><g>
      <circle cx="816" cy="1660" r="20" fill="#ffffff" />
      <text x="816" y="1664.4444444444443" text-anchor="middle" class="wire-text" style="font-size: 13.333333333333334px" fill="#1e3a5f">J</text>
    </g><text x="796" y="1699" class="wire-text wire-text-bold">John Doe</text><text x="796" y="1723" class="wire-text">Developer</text>
</svg>