<svg xmlns="http://www.w3.org/2000/svg" width="800" height="1592" viewBox="0 0 800 1592" role="img">
  <style>
    .wire-text { font-family: system-ui, -apple-system, sans-serif; font-size: 14px; fill: #212529; }
    .wire-text-secondary { fill: #6c757d; }
    .wire-text-disabled { fill: #adb5bd; }
    .wire-text-bold { font-weight: 600; }
    .wire-text-small { font-size: 12px; }
    .wire-text-large { font-size: 18px; }
  </style>
  
  <rect width="100%" height="100%" fill="#ffffff" />
  <text x="16" y="31" class="wire-text wire-text-bold">Component Showcase</text><text x="16" y="71" class="wire-text">Standard components that demonstrate theme differences.</text><line x1="16" y1="96" x2="216" y2="96" stroke="#dee2e6" stroke-width="1" /><rect x="16" y="117" width="768" height="467" fill="#f8f9fa" stroke="#dee2e6" stroke-width="1" /><text x="32" y="148" class="wire-text wire-text-bold">Buttons</text><g opacity="1">
      <rect x="32" y="161" width="100" height="36" rx="4" fill="#0d6efd" stroke="#dee2e6" stroke-width="1" />
      <text x="82" y="184" text-anchor="middle" class="wire-text" fill="#ffffff">Primary</text>
    </g><g opacity="1">
      <rect x="140" y="161" width="104" height="36" rx="4" fill="#e9ecef" stroke="#dee2e6" stroke-width="1" />
      <text x="192" y="184" text-anchor="middle" class="wire-text" fill="#212529">Secondary</text>
    </g><g opacity="1">
      <rect x="252" y="161" width="100" height="36" rx="4" fill="#e9ecef" stroke="#dee2e6" stroke-width="1" />
      <text x="302" y="184" text-anchor="middle" class="wire-text" fill="#212529">Default</text>
    </g><g opacity="0.5">
      <rect x="360" y="161" width="100" height="36" rx="4" fill="#e9ecef" stroke="#dee2e6" stroke-width="1" />
      <text x="410" y="184" text-anchor="middle" class="wire-text" fill="#212529">Disabled</text>
    </g><rect x="16" y="604" width="768" height="200" fill="#f8f9fa" stroke="#dee2e6" stroke-width="1" /><text x="32" y="635" class="wire-text wire-text-bold">Form Controls</text><g>
      <rect x="32" y="648" width="200" height="36" rx="4" fill="#ffffff" stroke="#dee2e6" stroke-width="1" />
      <text x="44" y="671" class="wire-text wire-text-secondary">Text input</text>
      
    </g><g>
      <rect x="32" y="688" width="300" height="100" rx="4" fill="#ffffff" stroke="#dee2e6" stroke-width="1" />
      <text x="44" y="708" class="wire-text wire-text-secondary">Multi-line text</text>
      <line x1="312" y1="780" x2="324" y2="780" stroke="#dee2e6" stroke-width="2" />
      <line x1="318" y1="774" x2="324" y2="780" stroke="#dee2e6" stroke-width="2" />
    </g><g><rect x="784" y="651" width="18" height="18" rx="2" fill="#ffffff" stroke="#dee2e6" stroke-width="1" /><text x="810" y="665" class="wire-text">Unchecked option</text></g><g><rect x="784" y="679" width="18" height="18" rx="2" fill="#ffffff" stroke="#dee2e6" stroke-width="1" /><path d="M788 688 L792 692 L798 684" stroke="#0d6efd" stroke-width="2" fill="none" stroke-linecap="round" stroke-linejoin="round" /><text x="810" y="693" class="wire-text">Checked option</text></g><g><circle cx="793" cy="716" r="9" fill="#ffffff" stroke="#dee2e6" stroke-width="1" /><circle cx="793" cy="716" r="4.5" fill="#0d6efd" /><text x="810" y="721" class="wire-text">Radio option A</text></g><g><circle cx="793" cy="744" r="9" fill="#ffffff" stroke="#dee2e6" stroke-width="1" /><text x="810" y="749" class="wire-text">Radio option B</text></g><g><rect x="950" y="648" width="44" height="24" rx="12" fill="#dee2e6" /><circle cx="962" cy="660" r="10" fill="#ffffff" /><text x="1002" y="665" class="wire-text">Toggle off</text></g><g><rect x="950" y="676" width="44" height="24" rx="12" fill="#0d6efd" /><circle cx="982" cy="688" r="10" fill="#ffffff" /><text x="1002" y="693" class="wire-text">Toggle on</text></g><g>
      <line x1="950" y1="716" x2="1150" y2="716" stroke="#dee2e6" stroke-width="4" stroke-linecap="round" />
      <line x1="950" y1="716" x2="1050" y2="716" stroke="#0d6efd" stroke-width="4" stroke-linecap="round" />
      <circle cx="1050" cy="716" r="8" fill="#0d6efd" stroke="#ffffff" stroke-width="2" />
    </g><rect x="16" y="824" width="768" height="128" fill="#f8f9fa" stroke="#dee2e6" stroke-width="1" /><text x="32" y="855" class="wire-text wire-text-bold">Progress &amp; Status</text><text x="32" y="883" class="wire-text">Progress Bars</text><g>
      <rect x="32" y="892" width="200" height="8" rx="4" fill="#f8f9fa" />
      <rect x="32" y="892" width="50" height="8" rx="4" fill="#0d6efd" />
    </g><g>
      <rect x="32" y="904" width="200" height="8" rx="4" fill="#f8f9fa" />
      <rect x="32" y="904" width="100" height="8" rx="4" fill="#0d6efd" />
    </g><g>
      <rect x="32" y="916" width="200" height="8" rx="4" fill="#f8f9fa" />
      <rect x="32" y="916" width="150" height="8" rx="4" fill="#0d6efd" />
    </g><g>
      <rect x="32" y="928" width="200" height="8" rx="4" fill="#f8f9fa" />
      <rect x="32" y="928" width="200" height="8" rx="4" fill="#0d6efd" />
    </g><text x="784" y="883" class="wire-text">Badges</text><g>
      <rect x="784" y="892" width="24" height="24" rx="12" fill="#6c757d" />
      <text x="796" y="908" text-anchor="middle" class="wire-text wire-text-small" fill="#ffffff"></text>
    </g><g>
      <rect x="812" y="892" width="24" height="24" rx="12" fill="#6c757d" />
      <text x="824" y="908" text-anchor="middle" class="wire-text wire-text-small" fill="#ffffff"></text>
    </g><g>
      <rect x="840" y="892" width="24" height="24" rx="12" fill="#6c757d" />
      <text x="852" y="908" text-anchor="middle" class="wire-text wire-text-small" fill="#ffffff"></text>
    </g><g>
      <rect x="868" y="892" width="24" height="24" rx="12" fill="#6c757d" />
      <text x="880" y="908" text-anchor="middle" class="wire-text wire-text-small" fill="#ffffff"></text>
    </g><rect x="16" y="972" width="768" height="388" fill="#f8f9fa" stroke="#dee2e6" stroke-width="1" /><text x="32" y="1003" class="wire-text wire-text-bold">Navigation</text><rect x="32" y="1016" width="736" height="184" fill="none" stroke="#dee2e6" stroke-width="1" /><g>
      <text x="48" y="1239" class="wire-text" fill="#0d6efd" style="text-decoration: underline">Link</text>
    </g><g>
      <text x="48" y="1267" class="wire-text" fill="#0d6efd" style="text-decoration: underline">Link</text>
    </g><g>
      <text x="48" y="1295" class="wire-text" fill="#0d6efd" style="text-decoration: underline">Link</text>
    </g><text x="48" y="1323" class="wire-text">Current Page</text><rect x="16" y="1380" width="768" height="180" fill="#f8f9fa" stroke="#dee2e6" stroke-width="1" /><text x="32" y="1411" class="wire-text wire-text-bold">Cards</text><rect x="32" y="1424" width="736" height="116" rx="8" fill="#ffffff" stroke="#dee2e6" stroke-width="1"  filter="url(#shadow)" /><text x="48" y="1455" class="wire-text wire-text-bold">Card Title</text><text x="48" y="1479" class="wire-text">Card content goes here with some description text.</text><g opacity="1">
      <rect x="48" y="1488" width="100" height="36" rx="4" fill="#0d6efd" stroke="#dee2e6" stroke-width="1" />
      <text x="98" y="1511" text-anchor="middle" class="wire-text" fill="#ffffff">Action</text>
    </g><rect x="780" y="1424" width="-12" height="120" rx="8" fill="#ffffff" stroke="#dee2e6" stroke-width="1"  filter="url(#shadow)" /><g>
      <circle cx="816" cy="1460" r="20" fill="#0d6efd" />
      <text x="816" y="1464.4444444444443" text-anchor="middle" class="wire-text" style="font-size: 13.333333333333334px" fill="#ffffff">J</text>
    </g><text x="796" y="1499" class="wire-text wire-text-bold">John Doe</text><text x="796" y="1523" class="wire-text">Developer</text>
</svg>