<svg xmlns="http://www.w3.org/2000/svg" width="800" height="741" viewBox="0 0 800 741" role="img">
  <style>
    .wire-text { font-family: "Comic Sans MS", cursive, sans-serif; font-size: 14px; fill: #333333; }
    .wire-text-secondary { fill: #6c757d; }
    .wire-text-disabled { fill: #adb5bd; }
    .wire-text-bold { font-weight: 600; }
    .wire-text-small { font-size: 12px; }
    .wire-text-large { font-size: 18px; }
  </style>
  
  <rect width="100%" height="100%" fill="#fefefe" />
  <text x="16" y="31" class="wire-text wire-text-bold">Sketch Theme</text><text x="16" y="67" class="wire-text">A hand-drawn style perfect for early design concepts and brainstorming.</text><line x1="16" y1="88" x2="216" y2="88" stroke="#888888" stroke-width="1" /><path d="M16.0 106.0 Q400.0 107.7 784.0 106.0 M784.5 105.0 Q788.3 344.5 782.9 584.0 M784.0 582.9 Q400.0 578.2 16.0 584.1 M15.6 584.0 Q14.8 344.5 16.0 105.0" fill="#fefefe" stroke="#888888" stroke-width="2"  filter="url(#shadow)" /><text x="32" y="136" class="wire-text wire-text-bold">Login Form</text><g>
      <path d="M32.0 149.5 Q132.0 149.0 232.0 149.3 M232.9 149.0 Q235.7 167.0 231.9 185.0 M232.0 184.4 Q132.0 185.9 32.0 185.7 M31.2 185.0 Q28.4 167.0 32.4 149.0" fill="#ffffff" stroke="#888888" stroke-width="2" />
      <text x="44" y="172" class="wire-text wire-text-secondary">Username</text>
      
    </g><g>
      <path d="M32.0 193.0 Q132.0 193.0 232.0 194.2 M233.4 193.0 Q234.3 211.0 232.0 229.0 M232.0 228.8 Q132.0 229.9 32.0 228.9 M30.7 229.0 Q29.9 211.0 32.6 193.0" fill="#ffffff" stroke="#888888" stroke-width="2" />
      <text x="44" y="216" class="wire-text wire-text-secondary">••••</text>
      
    </g><g><rect x="32" y="240" width="18" height="18" rx="2" fill="#ffffff" stroke="#888888" stroke-width="2" /><text x="58" y="254" class="wire-text">Keep me logged in</text></g><g opacity="1">
      <path d="M32.0 267.8 Q82.0 274.8 132.0 269.4 M131.7 269.0 Q133.7 287.0 132.1 305.0 M132.0 306.1 Q82.0 300.1 32.0 305.7 M32.4 305.0 Q30.9 287.0 30.8 269.0" fill="#4a90d9" stroke="#888888" stroke-width="2" />
      <text x="82" y="292" text-anchor="middle" class="wire-text" fill="#ffffff">Sign In</text>
    </g><g>
      <text x="32" y="328" class="wire-text" fill="#4a90d9" style="text-decoration: underline">Link</text>
    </g><path d="M800.0 104.0 Q792.0 105.7 784.0 104.0 M784.5 105.0 Q788.3 344.5 782.9 584.0 M784.0 585.1 Q792.0 586.0 800.0 583.9 M799.6 584.0 Q798.8 344.5 800.0 105.0" fill="#fefefe" stroke="#888888" stroke-width="2"  filter="url(#shadow)" /><text x="816" y="136" class="wire-text wire-text-bold">Quick Actions</text><g><rect x="816" y="149" width="36" height="36" rx="0" fill="#f0f0f0" stroke="#888888" stroke-width="2" /><rect x="826" y="159" width="16" height="16" rx="2" fill="none" stroke="#333333" stroke-width="1" stroke-dasharray="2,2" /></g><g><rect x="860" y="149" width="36" height="36" rx="0" fill="#f0f0f0" stroke="#888888" stroke-width="2" /><rect x="870" y="159" width="16" height="16" rx="2" fill="none" stroke="#333333" stroke-width="1" stroke-dasharray="2,2" /></g><g><rect x="904" y="149" width="36" height="36" rx="0" fill="#f0f0f0" stroke="#888888" stroke-width="2" /><rect x="914" y="159" width="16" height="16" rx="2" fill="none" stroke="#333333" stroke-width="1" stroke-dasharray="2,2" /></g><g><rect x="948" y="149" width="36" height="36" rx="0" fill="#f0f0f0" stroke="#888888" stroke-width="2" /><rect x="958" y="159" width="16" height="16" rx="2" fill="none" stroke="#333333" stroke-width="1" stroke-dasharray="2,2" /></g><line x1="816" y1="193" x2="1016" y2="193" stroke="#888888" stroke-width="1" /><line x1="16" y1="600" x2="216" y2="600" stroke="#888888" stroke-width="1" /><path d="M16.0 615.6 Q400.0 617.2 784.0 617.1 M783.9 617.0 Q777.8 663.0 783.8 709.0 M784.0 710.3 Q400.0 709.2 16.0 710.0 M16.3 709.0 Q22.3 663.0 16.8 617.0" fill="#f5f5f5" stroke="#888888" stroke-width="2" /><text x="32" y="648" class="wire-text wire-text-bold">Data Table</text>
</svg>