<svg xmlns="http://www.w3.org/2000/svg" width="800" height="600" viewBox="0 0 800 600" role="img">
  <style>
    .wire-text { font-family: system-ui, -apple-system, sans-serif; font-size: 14px; fill: #212529; }
    .wire-text-secondary { fill: #6c757d; }
    .wire-text-disabled { fill: #adb5bd; }
    .wire-text-bold { font-weight: 600; }
    .wire-text-small { font-size: 12px; }
    .wire-text-large { font-size: 18px; }
  </style>
  
  <rect width="100%" height="100%" fill="#ffffff" />
  <text x="16" y="31" class="wire-text wire-text-bold">Avatar Sizes</text><g>
      <circle cx="36" cy="72" r="20" fill="#0d6efd" />
      <text x="36" y="77" text-anchor="middle" class="wire-text" fill="#ffffff">?</text>
    </g><text x="16" y="111" class="wire-text">XS</text><g>
      <circle cx="820" cy="72" r="20" fill="#0d6efd" />
      <text x="820" y="77" text-anchor="middle" class="wire-text" fill="#ffffff">?</text>
    </g><text x="800" y="111" class="wire-text">SM</text><g>
      <circle cx="886" cy="72" r="20" fill="#0d6efd" />
      <text x="886" y="77" text-anchor="middle" class="wire-text" fill="#ffffff">?</text>
    </g><text x="866" y="111" class="wire-text">MD</text><g>
      <circle cx="952" cy="72" r="20" fill="#0d6efd" />
      <text x="952" y="77" text-anchor="middle" class="wire-text" fill="#ffffff">?</text>
    </g><text x="932" y="111" class="wire-text">LG</text><g>
      <circle cx="1018" cy="72" r="20" fill="#0d6efd" />
      <text x="1018" y="77" text-anchor="middle" class="wire-text" fill="#ffffff">?</text>
    </g><text x="998" y="111" class="wire-text">XL</text><line x1="16" y1="132" x2="216" y2="132" stroke="#dee2e6" stroke-width="1" /><text x="16" y="164" class="wire-text wire-text-bold">Avatar with Names</text><g>
      <circle cx="36" cy="205" r="20" fill="#0d6efd" />
      <text x="36" y="210" text-anchor="middle" class="wire-text" fill="#ffffff">?</text>
    </g><text x="64" y="200" class="wire-text">John Doe</text><g>
      <circle cx="36" cy="253" r="20" fill="#0d6efd" />
      <text x="36" y="258" text-anchor="middle" class="wire-text" fill="#ffffff">?</text>
    </g><text x="64" y="248" class="wire-text">Alice Smith</text><g>
      <circle cx="36" cy="301" r="20" fill="#0d6efd" />
      <text x="36" y="306" text-anchor="middle" class="wire-text" fill="#ffffff">?</text>
    </g><text x="64" y="296" class="wire-text">Bob Johnson</text>
</svg>