<svg xmlns="http://www.w3.org/2000/svg" width="800" height="600" viewBox="0 0 800 600" role="img">
  <style>
    .wire-text { font-family: system-ui, -apple-system, sans-serif; font-size: 14px; fill: #212529; }
    .wire-text-secondary { fill: #6c757d; }
    .wire-text-disabled { fill: #adb5bd; }
    .wire-text-bold { font-weight: 600; }
    .wire-text-small { font-size: 12px; }
    .wire-text-large { font-size: 18px; }
  </style>
  
  <rect width="100%" height="100%" fill="#ffffff" />
  <text x="16" y="31" class="wire-text wire-text-bold">Button Variants</text><g opacity="1">
      <rect x="16" y="52" width="100" height="36" rx="4" fill="#e9ecef" stroke="#dee2e6" stroke-width="1" />
      <text x="66" y="75" text-anchor="middle" class="wire-text" fill="#212529">Default</text>
    </g><g opacity="1">
      <rect x="124" y="52" width="100" height="36" rx="4" fill="#0d6efd" stroke="#dee2e6" stroke-width="1" />
      <text x="174" y="75" text-anchor="middle" class="wire-text" fill="#ffffff">Primary</text>
    </g><g opacity="1">
      <rect x="232" y="52" width="104" height="36" rx="4" fill="#e9ecef" stroke="#dee2e6" stroke-width="1" />
      <text x="284" y="75" text-anchor="middle" class="wire-text" fill="#212529">Secondary</text>
    </g><g opacity="0.5">
      <rect x="344" y="52" width="100" height="36" rx="4" fill="#e9ecef" stroke="#dee2e6" stroke-width="1" />
      <text x="394" y="75" text-anchor="middle" class="wire-text" fill="#212529">Disabled</text>
    </g><line x1="16" y1="104" x2="216" y2="104" stroke="#dee2e6" stroke-width="1" /><text x="16" y="136" class="wire-text wire-text-bold">Icon Buttons</text><g><rect x="16" y="157" width="36" height="36" rx="4" fill="#e9ecef" stroke="#dee2e6" stroke-width="1" /><rect x="26" y="167" width="16" height="16" rx="2" fill="none" stroke="#212529" stroke-width="1" stroke-dasharray="2,2" /></g><g><rect x="60" y="157" width="36" height="36" rx="4" fill="#e9ecef" stroke="#dee2e6" stroke-width="1" /><rect x="70" y="167" width="16" height="16" rx="2" fill="none" stroke="#212529" stroke-width="1" stroke-dasharray="2,2" /></g><g><rect x="104" y="157" width="36" height="36" rx="4" fill="#e9ecef" stroke="#dee2e6" stroke-width="1" /><rect x="114" y="167" width="16" height="16" rx="2" fill="none" stroke="#212529" stroke-width="1" stroke-dasharray="2,2" /></g><g><rect x="148" y="157" width="36" height="36" rx="4" fill="#e9ecef" stroke="#dee2e6" stroke-width="1" /><rect x="158" y="167" width="16" height="16" rx="2" fill="none" stroke="#212529" stroke-width="1" stroke-dasharray="2,2" /></g>
</svg>