<svg xmlns="http://www.w3.org/2000/svg" width="800" height="600" viewBox="0 0 800 600" role="img">
  <style>
    .wire-text { font-family: system-ui, -apple-system, sans-serif; font-size: 14px; fill: #212529; }
    .wire-text-secondary { fill: #6c757d; }
    .wire-text-disabled { fill: #adb5bd; }
    .wire-text-bold { font-weight: 600; }
    .wire-text-small { font-size: 12px; }
    .wire-text-large { font-size: 18px; }
  </style>
  
  <rect width="100%" height="100%" fill="#ffffff" />
  <text x="16" y="31" class="wire-text wire-text-bold">Checkbox Variants</text><g><rect x="16" y="55" width="18" height="18" rx="2" fill="#ffffff" stroke="#dee2e6" stroke-width="1" /><text x="42" y="69" class="wire-text">Unchecked option</text></g><g><rect x="16" y="87" width="18" height="18" rx="2" fill="#ffffff" stroke="#dee2e6" stroke-width="1" /><path d="M20 96 L24 100 L30 92" stroke="#0d6efd" stroke-width="2" fill="none" stroke-linecap="round" stroke-linejoin="round" /><text x="42" y="101" class="wire-text">Checked option</text></g><g><rect x="16" y="119" width="18" height="18" rx="2" fill="#ffffff" stroke="#dee2e6" stroke-width="1" /><text x="42" y="133" class="wire-text">Disabled unchecked</text></g><g><rect x="16" y="151" width="18" height="18" rx="2" fill="#ffffff" stroke="#dee2e6" stroke-width="1" /><path d="M20 160 L24 164 L30 156" stroke="#0d6efd" stroke-width="2" fill="none" stroke-linecap="round" stroke-linejoin="round" /><text x="42" y="165" class="wire-text">Disabled checked</text></g><g><rect x="16" y="183" width="18" height="18" rx="2" fill="#ffffff" stroke="#dee2e6" stroke-width="1" /><text x="42" y="197" class="wire-text">Required option</text></g><line x1="16" y1="220" x2="216" y2="220" stroke="#dee2e6" stroke-width="1" /><text x="16" y="252" class="wire-text wire-text-bold">Checkbox Group</text><text x="16" y="288" class="wire-text">Select your preferences:</text><g><rect x="16" y="300" width="18" height="18" rx="2" fill="#ffffff" stroke="#dee2e6" stroke-width="1" /><path d="M20 309 L24 313 L30 305" stroke="#0d6efd" stroke-width="2" fill="none" stroke-linecap="round" stroke-linejoin="round" /><text x="42" y="314" class="wire-text">Email notifications</text></g><g><rect x="16" y="328" width="18" height="18" rx="2" fill="#ffffff" stroke="#dee2e6" stroke-width="1" /><text x="42" y="342" class="wire-text">SMS notifications</text></g><g><rect x="16" y="356" width="18" height="18" rx="2" fill="#ffffff" stroke="#dee2e6" stroke-width="1" /><path d="M20 365 L24 369 L30 361" stroke="#0d6efd" stroke-width="2" fill="none" stroke-linecap="round" stroke-linejoin="round" /><text x="42" y="370" class="wire-text">Push notifications</text></g><g><rect x="16" y="384" width="18" height="18" rx="2" fill="#ffffff" stroke="#dee2e6" stroke-width="1" /><text x="42" y="398" class="wire-text">Weekly digest</text></g>
</svg>