<svg xmlns="http://www.w3.org/2000/svg" width="800" height="757" viewBox="0 0 800 757" role="img">
  <style>
    .wire-text { font-family: system-ui, -apple-system, sans-serif; font-size: 14px; fill: #212529; }
    .wire-text-secondary { fill: #6c757d; }
    .wire-text-disabled { fill: #adb5bd; }
    .wire-text-bold { font-weight: 600; }
    .wire-text-small { font-size: 12px; }
    .wire-text-large { font-size: 18px; }
  </style>
  
  <rect width="100%" height="100%" fill="#ffffff" />
  <text x="16" y="31" class="wire-text wire-text-bold">2-Column Grid (Default)</text><g opacity="1">
      <rect x="16" y="52" width="100" height="36" rx="4" fill="#e9ecef" stroke="#dee2e6" stroke-width="1" />
      <text x="66" y="75" text-anchor="middle" class="wire-text" fill="#212529">Cell 1</text>
    </g><g opacity="1">
      <rect x="404" y="52" width="100" height="36" rx="4" fill="#e9ecef" stroke="#dee2e6" stroke-width="1" />
      <text x="454" y="75" text-anchor="middle" class="wire-text" fill="#212529">Cell 2</text>
    </g><g opacity="1">
      <rect x="16" y="100" width="100" height="36" rx="4" fill="#e9ecef" stroke="#dee2e6" stroke-width="1" />
      <text x="66" y="123" text-anchor="middle" class="wire-text" fill="#212529">Cell 3</text>
    </g><g opacity="1">
      <rect x="404" y="100" width="100" height="36" rx="4" fill="#e9ecef" stroke="#dee2e6" stroke-width="1" />
      <text x="454" y="123" text-anchor="middle" class="wire-text" fill="#212529">Cell 4</text>
    </g><line x1="16" y1="152" x2="216" y2="152" stroke="#dee2e6" stroke-width="1" /><text x="16" y="184" class="wire-text wire-text-bold">3-Column Grid</text><rect x="16" y="205" width="250.66666666666666" height="379" rx="8" fill="#ffffff" stroke="#dee2e6" stroke-width="1"  filter="url(#shadow)" /><text x="32" y="236" class="wire-text">Card 1</text><rect x="274.66666666666663" y="205" width="250.66666666666666" height="379" rx="8" fill="#ffffff" stroke="#dee2e6" stroke-width="1"  filter="url(#shadow)" /><text x="290.66666666666663" y="236" class="wire-text">Card 2</text><rect x="533.3333333333333" y="205" width="250.66666666666666" height="379" rx="8" fill="#ffffff" stroke="#dee2e6" stroke-width="1"  filter="url(#shadow)" /><text x="549.3333333333333" y="236" class="wire-text">Card 3</text><rect x="16" y="253" width="250.66666666666666" height="331" rx="8" fill="#ffffff" stroke="#dee2e6" stroke-width="1"  filter="url(#shadow)" /><text x="32" y="284" class="wire-text">Card 4</text><rect x="274.66666666666663" y="253" width="250.66666666666666" height="331" rx="8" fill="#ffffff" stroke="#dee2e6" stroke-width="1"  filter="url(#shadow)" /><text x="290.66666666666663" y="284" class="wire-text">Card 5</text><rect x="533.3333333333333" y="253" width="250.66666666666666" height="331" rx="8" fill="#ffffff" stroke="#dee2e6" stroke-width="1"  filter="url(#shadow)" /><text x="549.3333333333333" y="284" class="wire-text">Card 6</text><line x1="16" y1="600" x2="216" y2="600" stroke="#dee2e6" stroke-width="1" /><text x="16" y="632" class="wire-text wire-text-bold">4-Column Grid</text><g>
      <rect x="16" y="653" width="24" height="24" rx="12" fill="#6c757d" />
      <text x="28" y="669" text-anchor="middle" class="wire-text wire-text-small" fill="#ffffff"></text>
    </g><g>
      <rect x="210" y="653" width="24" height="24" rx="12" fill="#6c757d" />
      <text x="222" y="669" text-anchor="middle" class="wire-text wire-text-small" fill="#ffffff"></text>
    </g><g>
      <rect x="404" y="653" width="24" height="24" rx="12" fill="#6c757d" />
      <text x="416" y="669" text-anchor="middle" class="wire-text wire-text-small" fill="#ffffff"></text>
    </g><g>
      <rect x="598" y="653" width="24" height="24" rx="12" fill="#6c757d" />
      <text x="610" y="669" text-anchor="middle" class="wire-text wire-text-small" fill="#ffffff"></text>
    </g><g>
      <rect x="16" y="701" width="24" height="24" rx="12" fill="#6c757d" />
      <text x="28" y="717" text-anchor="middle" class="wire-text wire-text-small" fill="#ffffff"></text>
    </g><g>
      <rect x="210" y="701" width="24" height="24" rx="12" fill="#6c757d" />
      <text x="222" y="717" text-anchor="middle" class="wire-text wire-text-small" fill="#ffffff"></text>
    </g><g>
      <rect x="404" y="701" width="24" height="24" rx="12" fill="#6c757d" />
      <text x="416" y="717" text-anchor="middle" class="wire-text wire-text-small" fill="#ffffff"></text>
    </g><g>
      <rect x="598" y="701" width="24" height="24" rx="12" fill="#6c757d" />
      <text x="610" y="717" text-anchor="middle" class="wire-text wire-text-small" fill="#ffffff"></text>
    </g>
</svg>