<svg xmlns="http://www.w3.org/2000/svg" width="800" height="905" viewBox="0 0 800 905" role="img">
  <style>
    .wire-text { font-family: system-ui, -apple-system, sans-serif; font-size: 14px; fill: #212529; }
    .wire-text-secondary { fill: #6c757d; }
    .wire-text-disabled { fill: #adb5bd; }
    .wire-text-bold { font-weight: 600; }
    .wire-text-small { font-size: 12px; }
    .wire-text-large { font-size: 18px; }
  </style>
  
  <rect width="100%" height="100%" fill="#ffffff" />
  <text x="16" y="31" class="wire-text wire-text-bold">Horizontal Layout</text><rect x="16" y="52" width="768" height="532" rx="8" fill="#ffffff" stroke="#dee2e6" stroke-width="1" filter="url(#shadow)" /><g opacity="1">
      <rect x="32" y="68" width="100" height="36" rx="4" fill="#e9ecef" stroke="#dee2e6" stroke-width="1" />
      <text x="82" y="91" text-anchor="middle" class="wire-text" fill="#212529">Item 1</text>
    </g><g opacity="1">
      <rect x="140" y="68" width="100" height="36" rx="4" fill="#e9ecef" stroke="#dee2e6" stroke-width="1" />
      <text x="190" y="91" text-anchor="middle" class="wire-text" fill="#212529">Item 2</text>
    </g><g opacity="1">
      <rect x="248" y="68" width="100" height="36" rx="4" fill="#e9ecef" stroke="#dee2e6" stroke-width="1" />
      <text x="298" y="91" text-anchor="middle" class="wire-text" fill="#212529">Item 3</text>
    </g><line x1="16" y1="600" x2="216" y2="600" stroke="#dee2e6" stroke-width="1" /><text x="16" y="632" class="wire-text wire-text-bold">Horizontal with Alignment</text><rect x="16" y="653" width="768" height="68" rx="8" fill="#ffffff" stroke="#dee2e6" stroke-width="1" filter="url(#shadow)" /><text x="32" y="684" class="wire-text">Top</text><g opacity="1">
      <rect x="90" y="669" width="120" height="36" rx="4" fill="#e9ecef" stroke="#dee2e6" stroke-width="1" />
      <text x="150" y="692" text-anchor="middle" class="wire-text" fill="#212529">Tall
Button</text>
    </g><g>
      <rect x="218" y="669" width="200" height="36" rx="4" fill="#ffffff" stroke="#dee2e6" stroke-width="1" />
      <text x="230" y="692" class="wire-text wire-text-secondary">Input</text>
      
    </g><rect x="16" y="729" width="768" height="68" rx="8" fill="#ffffff" stroke="#dee2e6" stroke-width="1" filter="url(#shadow)" /><text x="32" y="760" class="wire-text">Center</text><g opacity="1">
      <rect x="90" y="745" width="120" height="36" rx="4" fill="#e9ecef" stroke="#dee2e6" stroke-width="1" />
      <text x="150" y="768" text-anchor="middle" class="wire-text" fill="#212529">Tall
Button</text>
    </g><g>
      <rect x="218" y="745" width="200" height="36" rx="4" fill="#ffffff" stroke="#dee2e6" stroke-width="1" />
      <text x="230" y="768" class="wire-text wire-text-secondary">Input</text>
      
    </g><rect x="16" y="805" width="768" height="68" rx="8" fill="#ffffff" stroke="#dee2e6" stroke-width="1" filter="url(#shadow)" /><text x="32" y="836" class="wire-text">Bottom</text><g opacity="1">
      <rect x="90" y="821" width="120" height="36" rx="4" fill="#e9ecef" stroke="#dee2e6" stroke-width="1" />
      <text x="150" y="844" text-anchor="middle" class="wire-text" fill="#212529">Tall
Button</text>
    </g><g>
      <rect x="218" y="821" width="200" height="36" rx="4" fill="#ffffff" stroke="#dee2e6" stroke-width="1" />
      <text x="230" y="844" class="wire-text wire-text-secondary">Input</text>
      
    </g>
</svg>