<svg xmlns="http://www.w3.org/2000/svg" width="800" height="600" viewBox="0 0 800 600" role="img">
  <style>
    .wire-text { font-family: system-ui, -apple-system, sans-serif; font-size: 14px; fill: #212529; }
    .wire-text-secondary { fill: #6c757d; }
    .wire-text-disabled { fill: #adb5bd; }
    .wire-text-bold { font-weight: 600; }
    .wire-text-small { font-size: 12px; }
    .wire-text-large { font-size: 18px; }
  </style>
  
  <rect width="100%" height="100%" fill="#ffffff" />
  <text x="16" y="31" class="wire-text wire-text-bold">Icons</text><rect x="16" y="52" width="24" height="24" rx="2" fill="none" stroke="#212529" stroke-width="1" stroke-dasharray="2,2" /><text x="16" y="95" class="wire-text">Home</text><rect x="800" y="52" width="24" height="24" rx="2" fill="none" stroke="#212529" stroke-width="1" stroke-dasharray="2,2" /><text x="800" y="95" class="wire-text">Settings</text><rect x="880" y="52" width="24" height="24" rx="2" fill="none" stroke="#212529" stroke-width="1" stroke-dasharray="2,2" /><text x="880" y="95" class="wire-text">User</text><rect x="946" y="52" width="24" height="24" rx="2" fill="none" stroke="#212529" stroke-width="1" stroke-dasharray="2,2" /><text x="946" y="95" class="wire-text">Search</text><rect x="1012" y="52" width="24" height="24" rx="2" fill="none" stroke="#212529" stroke-width="1" stroke-dasharray="2,2" /><text x="1012" y="95" class="wire-text">Menu</text><line x1="16" y1="116" x2="216" y2="116" stroke="#dee2e6" stroke-width="1" /><text x="16" y="148" class="wire-text wire-text-bold">Images</text><g>
      <rect x="16" y="169" width="150" height="100" fill="#f8f9fa" stroke="#dee2e6" stroke-width="1" />
      <line x1="16" y1="169" x2="166" y2="269" stroke="#dee2e6" stroke-width="1" />
      <line x1="166" y1="169" x2="16" y2="269" stroke="#dee2e6" stroke-width="1" />
      <text x="91" y="224" text-anchor="middle" class="wire-text wire-text-secondary wire-text-small">Image</text>
    </g><g>
      <rect x="182" y="169" width="150" height="100" fill="#f8f9fa" stroke="#dee2e6" stroke-width="1" />
      <line x1="182" y1="169" x2="332" y2="269" stroke="#dee2e6" stroke-width="1" />
      <line x1="332" y1="169" x2="182" y2="269" stroke="#dee2e6" stroke-width="1" />
      <text x="257" y="224" text-anchor="middle" class="wire-text wire-text-secondary wire-text-small">Image</text>
    </g><g>
      <rect x="348" y="169" width="150" height="100" fill="#f8f9fa" stroke="#dee2e6" stroke-width="1" />
      <line x1="348" y1="169" x2="498" y2="269" stroke="#dee2e6" stroke-width="1" />
      <line x1="498" y1="169" x2="348" y2="269" stroke="#dee2e6" stroke-width="1" />
      <text x="423" y="224" text-anchor="middle" class="wire-text wire-text-secondary wire-text-small">Image</text>
    </g>
</svg>