<svg xmlns="http://www.w3.org/2000/svg" width="800" height="600" viewBox="0 0 800 600" role="img">
  <style>
    .wire-text { font-family: system-ui, -apple-system, sans-serif; font-size: 14px; fill: #212529; }
    .wire-text-secondary { fill: #6c757d; }
    .wire-text-disabled { fill: #adb5bd; }
    .wire-text-bold { font-weight: 600; }
    .wire-text-small { font-size: 12px; }
    .wire-text-large { font-size: 18px; }
  </style>
  
  <rect width="100%" height="100%" fill="#ffffff" />
  <text x="16" y="31" class="wire-text wire-text-bold">Basic Pagination</text><g><rect x="16" y="52" width="32" height="36" rx="4" fill="#e9ecef" stroke="#dee2e6" stroke-width="1" /><path d="M29 66 L25 70 L29 74" stroke="#212529" stroke-width="2" fill="none" /><rect x="52" y="52" width="32" height="36" rx="4" fill="#0d6efd" stroke="#dee2e6" stroke-width="1" /><text x="68" y="75" text-anchor="middle" class="wire-text" fill="#ffffff">1</text><rect x="88" y="52" width="32" height="36" rx="4" fill="#e9ecef" stroke="#dee2e6" stroke-width="1" /><text x="104" y="75" text-anchor="middle" class="wire-text" fill="#212529">2</text><rect x="124" y="52" width="32" height="36" rx="4" fill="#e9ecef" stroke="#dee2e6" stroke-width="1" /><text x="140" y="75" text-anchor="middle" class="wire-text" fill="#212529">3</text><rect x="160" y="52" width="32" height="36" rx="4" fill="#e9ecef" stroke="#dee2e6" stroke-width="1" /><text x="176" y="75" text-anchor="middle" class="wire-text" fill="#212529">4</text><rect x="196" y="52" width="32" height="36" rx="4" fill="#e9ecef" stroke="#dee2e6" stroke-width="1" /><text x="212" y="75" text-anchor="middle" class="wire-text" fill="#212529">5</text><rect x="232" y="52" width="32" height="36" rx="4" fill="#e9ecef" stroke="#dee2e6" stroke-width="1" /><path d="M243 66 L247 70 L243 74" stroke="#212529" stroke-width="2" fill="none" /></g><line x1="16" y1="104" x2="216" y2="104" stroke="#dee2e6" stroke-width="1" /><text x="16" y="136" class="wire-text wire-text-bold">Middle Page</text><g><rect x="16" y="157" width="32" height="36" rx="4" fill="#e9ecef" stroke="#dee2e6" stroke-width="1" /><path d="M29 171 L25 175 L29 179" stroke="#212529" stroke-width="2" fill="none" /><rect x="52" y="157" width="32" height="36" rx="4" fill="#e9ecef" stroke="#dee2e6" stroke-width="1" /><text x="68" y="180" text-anchor="middle" class="wire-text" fill="#212529">3</text><rect x="88" y="157" width="32" height="36" rx="4" fill="#e9ecef" stroke="#dee2e6" stroke-width="1" /><text x="104" y="180" text-anchor="middle" class="wire-text" fill="#212529">4</text><rect x="124" y="157" width="32" height="36" rx="4" fill="#0d6efd" stroke="#dee2e6" stroke-width="1" /><text x="140" y="180" text-anchor="middle" class="wire-text" fill="#ffffff">5</text><rect x="160" y="157" width="32" height="36" rx="4" fill="#e9ecef" stroke="#dee2e6" stroke-width="1" /><text x="176" y="180" text-anchor="middle" class="wire-text" fill="#212529">6</text><rect x="196" y="157" width="32" height="36" rx="4" fill="#e9ecef" stroke="#dee2e6" stroke-width="1" /><text x="212" y="180" text-anchor="middle" class="wire-text" fill="#212529">7</text><rect x="232" y="157" width="32" height="36" rx="4" fill="#e9ecef" stroke="#dee2e6" stroke-width="1" /><path d="M243 171 L247 175 L243 179" stroke="#212529" stroke-width="2" fill="none" /></g><line x1="16" y1="209" x2="216" y2="209" stroke="#dee2e6" stroke-width="1" /><text x="16" y="241" class="wire-text wire-text-bold">Last Page</text><g><rect x="16" y="262" width="32" height="36" rx="4" fill="#e9ecef" stroke="#dee2e6" stroke-width="1" /><path d="M29 276 L25 280 L29 284" stroke="#212529" stroke-width="2" fill="none" /><rect x="52" y="262" width="32" height="36" rx="4" fill="#e9ecef" stroke="#dee2e6" stroke-width="1" /><text x="68" y="285" text-anchor="middle" class="wire-text" fill="#212529">8</text><rect x="88" y="262" width="32" height="36" rx="4" fill="#e9ecef" stroke="#dee2e6" stroke-width="1" /><text x="104" y="285" text-anchor="middle" class="wire-text" fill="#212529">9</text><rect x="124" y="262" width="32" height="36" rx="4" fill="#0d6efd" stroke="#dee2e6" stroke-width="1" /><text x="140" y="285" text-anchor="middle" class="wire-text" fill="#ffffff">10</text><rect x="160" y="262" width="32" height="36" rx="4" fill="#e9ecef" stroke="#dee2e6" stroke-width="1" /><path d="M171 276 L175 280 L171 284" stroke="#212529" stroke-width="2" fill="none" /></g><line x1="16" y1="314" x2="216" y2="314" stroke="#dee2e6" stroke-width="1" /><text x="16" y="346" class="wire-text wire-text-bold">Many Pages</text><g><rect x="16" y="367" width="32" height="36" rx="4" fill="#e9ecef" stroke="#dee2e6" stroke-width="1" /><path d="M29 381 L25 385 L29 389" stroke="#212529" stroke-width="2" fill="none" /><rect x="52" y="367" width="32" height="36" rx="4" fill="#e9ecef" stroke="#dee2e6" stroke-width="1" /><text x="68" y="390" text-anchor="middle" class="wire-text" fill="#212529">13</text><rect x="88" y="367" width="32" height="36" rx="4" fill="#e9ecef" stroke="#dee2e6" stroke-width="1" /><text x="104" y="390" text-anchor="middle" class="wire-text" fill="#212529">14</text><rect x="124" y="367" width="32" height="36" rx="4" fill="#0d6efd" stroke="#dee2e6" stroke-width="1" /><text x="140" y="390" text-anchor="middle" class="wire-text" fill="#ffffff">15</text><rect x="160" y="367" width="32" height="36" rx="4" fill="#e9ecef" stroke="#dee2e6" stroke-width="1" /><text x="176" y="390" text-anchor="middle" class="wire-text" fill="#212529">16</text><rect x="196" y="367" width="32" height="36" rx="4" fill="#e9ecef" stroke="#dee2e6" stroke-width="1" /><text x="212" y="390" text-anchor="middle" class="wire-text" fill="#212529">17</text><rect x="232" y="367" width="32" height="36" rx="4" fill="#e9ecef" stroke="#dee2e6" stroke-width="1" /><path d="M243 381 L247 385 L243 389" stroke="#212529" stroke-width="2" fill="none" /></g>
</svg>