<svg xmlns="http://www.w3.org/2000/svg" width="800" height="600" viewBox="0 0 800 600" role="img">
  <style>
    .wire-text { font-family: system-ui, -apple-system, sans-serif; font-size: 14px; fill: #212529; }
    .wire-text-secondary { fill: #6c757d; }
    .wire-text-disabled { fill: #adb5bd; }
    .wire-text-bold { font-weight: 600; }
    .wire-text-small { font-size: 12px; }
    .wire-text-large { font-size: 18px; }
  </style>
  
  <rect width="100%" height="100%" fill="#ffffff" />
  <text x="16" y="31" class="wire-text wire-text-bold">Progress Bar Variants</text><text x="16" y="67" class="wire-text">0% Complete</text><g>
      <rect x="16" y="76" width="200" height="8" rx="4" fill="#f8f9fa" />
      <rect x="16" y="76" width="0" height="8" rx="4" fill="#0d6efd" />
    </g><text x="16" y="111" class="wire-text">25% Complete</text><g>
      <rect x="16" y="120" width="200" height="8" rx="4" fill="#f8f9fa" />
      <rect x="16" y="120" width="50" height="8" rx="4" fill="#0d6efd" />
    </g><text x="16" y="155" class="wire-text">50% Complete</text><g>
      <rect x="16" y="164" width="200" height="8" rx="4" fill="#f8f9fa" />
      <rect x="16" y="164" width="100" height="8" rx="4" fill="#0d6efd" />
    </g><text x="16" y="199" class="wire-text">75% Complete</text><g>
      <rect x="16" y="208" width="200" height="8" rx="4" fill="#f8f9fa" />
      <rect x="16" y="208" width="150" height="8" rx="4" fill="#0d6efd" />
    </g><text x="16" y="243" class="wire-text">100% Complete</text><g>
      <rect x="16" y="252" width="200" height="8" rx="4" fill="#f8f9fa" />
      <rect x="16" y="252" width="200" height="8" rx="4" fill="#0d6efd" />
    </g><line x1="16" y1="276" x2="216" y2="276" stroke="#dee2e6" stroke-width="1" /><text x="16" y="308" class="wire-text wire-text-bold">Loading State</text><g>
      <rect x="16" y="329" width="200" height="8" rx="4" fill="#f8f9fa" />
      <rect x="16" y="329" width="0" height="8" rx="4" fill="#0d6efd" />
    </g>
</svg>