<svg xmlns="http://www.w3.org/2000/svg" width="800" height="600" viewBox="0 0 800 600" role="img">
  <style>
    .wire-text { font-family: system-ui, -apple-system, sans-serif; font-size: 14px; fill: #212529; }
    .wire-text-secondary { fill: #6c757d; }
    .wire-text-disabled { fill: #adb5bd; }
    .wire-text-bold { font-weight: 600; }
    .wire-text-small { font-size: 12px; }
    .wire-text-large { font-size: 18px; }
  </style>
  
  <rect width="100%" height="100%" fill="#ffffff" />
  <text x="16" y="31" class="wire-text wire-text-bold">Radio Button Variants</text><g><circle cx="25" cy="64" r="9" fill="#ffffff" stroke="#dee2e6" stroke-width="1" /><text x="42" y="69" class="wire-text">Unselected option</text></g><g><circle cx="25" cy="96" r="9" fill="#ffffff" stroke="#dee2e6" stroke-width="1" /><circle cx="25" cy="96" r="4.5" fill="#0d6efd" /><text x="42" y="101" class="wire-text">Selected option</text></g><g><circle cx="25" cy="128" r="9" fill="#ffffff" stroke="#dee2e6" stroke-width="1" /><text x="42" y="133" class="wire-text">Disabled unselected</text></g><g><circle cx="25" cy="160" r="9" fill="#ffffff" stroke="#dee2e6" stroke-width="1" /><circle cx="25" cy="160" r="4.5" fill="#0d6efd" /><text x="42" y="165" class="wire-text">Disabled selected</text></g><line x1="16" y1="188" x2="216" y2="188" stroke="#dee2e6" stroke-width="1" /><text x="16" y="220" class="wire-text wire-text-bold">Radio Group</text><text x="16" y="256" class="wire-text">Choose a plan:</text><g><circle cx="25" cy="277" r="9" fill="#ffffff" stroke="#dee2e6" stroke-width="1" /><text x="42" y="282" class="wire-text">Free - $0/month</text></g><g><circle cx="25" cy="305" r="9" fill="#ffffff" stroke="#dee2e6" stroke-width="1" /><circle cx="25" cy="305" r="4.5" fill="#0d6efd" /><text x="42" y="310" class="wire-text">Basic - $9/month</text></g><g><circle cx="25" cy="333" r="9" fill="#ffffff" stroke="#dee2e6" stroke-width="1" /><text x="42" y="338" class="wire-text">Pro - $29/month</text></g><g><circle cx="25" cy="361" r="9" fill="#ffffff" stroke="#dee2e6" stroke-width="1" /><text x="42" y="366" class="wire-text">Enterprise - Contact us</text></g>
</svg>