<svg xmlns="http://www.w3.org/2000/svg" width="800" height="1073" viewBox="0 0 800 1073" role="img">
  <style>
    .wire-text { font-family: system-ui, -apple-system, sans-serif; font-size: 14px; fill: #212529; }
    .wire-text-secondary { fill: #6c757d; }
    .wire-text-disabled { fill: #adb5bd; }
    .wire-text-bold { font-weight: 600; }
    .wire-text-small { font-size: 12px; }
    .wire-text-large { font-size: 18px; }
  </style>
  
  <rect width="100%" height="100%" fill="#ffffff" />
  <text x="16" y="31" class="wire-text wire-text-bold">Sidebar</text><rect x="16" y="52" width="768" height="532" fill="#f8f9fa" stroke="#dee2e6" stroke-width="1" /><text x="32" y="83" class="wire-text wire-text-bold">Navigation</text><rect x="784" y="52" width="0" height="532" fill="#f8f9fa" stroke="#dee2e6" stroke-width="1" /><text x="800" y="83" class="wire-text">Main content area</text><line x1="16" y1="600" x2="216" y2="600" stroke="#dee2e6" stroke-width="1" /><text x="16" y="632" class="wire-text wire-text-bold">Drawer</text><rect x="16" y="653" width="768" height="388" fill="#f8f9fa" stroke="#dee2e6" stroke-width="1" /><rect x="48" y="685" width="704" height="100" rx="8" fill="#ffffff" stroke="#dee2e6" stroke-width="1" filter="url(#shadow)" /><text x="64" y="716" class="wire-text wire-text-bold">New message</text><text x="64" y="740" class="wire-text">John sent you a message</text><text x="64" y="764" class="wire-text">2 minutes ago</text><rect x="48" y="797" width="704" height="100" rx="8" fill="#ffffff" stroke="#dee2e6" stroke-width="1" filter="url(#shadow)" /><text x="64" y="828" class="wire-text wire-text-bold">Task completed</text><text x="64" y="852" class="wire-text">Project review finished</text><text x="64" y="876" class="wire-text">1 hour ago</text><rect x="48" y="909" width="704" height="100" rx="8" fill="#ffffff" stroke="#dee2e6" stroke-width="1" filter="url(#shadow)" /><text x="64" y="940" class="wire-text wire-text-bold">Reminder</text><text x="64" y="964" class="wire-text">Team meeting at 3 PM</text><text x="64" y="988" class="wire-text">3 hours ago</text>
</svg>