<svg xmlns="http://www.w3.org/2000/svg" width="800" height="841" viewBox="0 0 800 841" role="img">
  <style>
    .wire-text { font-family: system-ui, -apple-system, sans-serif; font-size: 14px; fill: #212529; }
    .wire-text-secondary { fill: #6c757d; }
    .wire-text-disabled { fill: #adb5bd; }
    .wire-text-bold { font-weight: 600; }
    .wire-text-small { font-size: 12px; }
    .wire-text-large { font-size: 18px; }
  </style>
  
  <rect width="100%" height="100%" fill="#ffffff" />
  <text x="16" y="31" class="wire-text wire-text-bold">Loading Skeletons</text><rect x="16" y="52" width="200" height="20" rx="4" fill="#f8f9fa">
      <animate attributeName="opacity" values="0.6;1;0.6" dur="1.5s" repeatCount="indefinite" />
    </rect><rect x="16" y="80" width="200" height="20" rx="4" fill="#f8f9fa">
      <animate attributeName="opacity" values="0.6;1;0.6" dur="1.5s" repeatCount="indefinite" />
    </rect><rect x="16" y="108" width="200" height="20" rx="4" fill="#f8f9fa">
      <animate attributeName="opacity" values="0.6;1;0.6" dur="1.5s" repeatCount="indefinite" />
    </rect><line x1="16" y1="144" x2="216" y2="144" stroke="#dee2e6" stroke-width="1" /><text x="16" y="176" class="wire-text wire-text-bold">Card Skeleton</text><rect x="16" y="197" width="768" height="387" rx="8" fill="#ffffff" stroke="#dee2e6" stroke-width="1"  filter="url(#shadow)" /><rect x="32" y="213" width="200" height="20" rx="4" fill="#f8f9fa">
      <animate attributeName="opacity" values="0.6;1;0.6" dur="1.5s" repeatCount="indefinite" />
    </rect><rect x="248" y="213" width="200" height="20" rx="4" fill="#f8f9fa">
      <animate attributeName="opacity" values="0.6;1;0.6" dur="1.5s" repeatCount="indefinite" />
    </rect><rect x="248" y="241" width="200" height="20" rx="4" fill="#f8f9fa">
      <animate attributeName="opacity" values="0.6;1;0.6" dur="1.5s" repeatCount="indefinite" />
    </rect><rect x="248" y="269" width="200" height="20" rx="4" fill="#f8f9fa">
      <animate attributeName="opacity" values="0.6;1;0.6" dur="1.5s" repeatCount="indefinite" />
    </rect><line x1="16" y1="600" x2="216" y2="600" stroke="#dee2e6" stroke-width="1" /><text x="16" y="632" class="wire-text wire-text-bold">List Skeleton</text><rect x="16" y="653" width="200" height="20" rx="4" fill="#f8f9fa">
      <animate attributeName="opacity" values="0.6;1;0.6" dur="1.5s" repeatCount="indefinite" />
    </rect><rect x="228" y="653" width="200" height="20" rx="4" fill="#f8f9fa">
      <animate attributeName="opacity" values="0.6;1;0.6" dur="1.5s" repeatCount="indefinite" />
    </rect><rect x="228" y="677" width="200" height="20" rx="4" fill="#f8f9fa">
      <animate attributeName="opacity" values="0.6;1;0.6" dur="1.5s" repeatCount="indefinite" />
    </rect><rect x="16" y="709" width="200" height="20" rx="4" fill="#f8f9fa">
      <animate attributeName="opacity" values="0.6;1;0.6" dur="1.5s" repeatCount="indefinite" />
    </rect><rect x="228" y="709" width="200" height="20" rx="4" fill="#f8f9fa">
      <animate attributeName="opacity" values="0.6;1;0.6" dur="1.5s" repeatCount="indefinite" />
    </rect><rect x="228" y="733" width="200" height="20" rx="4" fill="#f8f9fa">
      <animate attributeName="opacity" values="0.6;1;0.6" dur="1.5s" repeatCount="indefinite" />
    </rect><rect x="16" y="765" width="200" height="20" rx="4" fill="#f8f9fa">
      <animate attributeName="opacity" values="0.6;1;0.6" dur="1.5s" repeatCount="indefinite" />
    </rect><rect x="228" y="765" width="200" height="20" rx="4" fill="#f8f9fa">
      <animate attributeName="opacity" values="0.6;1;0.6" dur="1.5s" repeatCount="indefinite" />
    </rect><rect x="228" y="789" width="200" height="20" rx="4" fill="#f8f9fa">
      <animate attributeName="opacity" values="0.6;1;0.6" dur="1.5s" repeatCount="indefinite" />
    </rect>
</svg>