<svg xmlns="http://www.w3.org/2000/svg" width="800" height="600" viewBox="0 0 800 600" role="img">
  <style>
    .wire-text { font-family: system-ui, -apple-system, sans-serif; font-size: 14px; fill: #212529; }
    .wire-text-secondary { fill: #6c757d; }
    .wire-text-disabled { fill: #adb5bd; }
    .wire-text-bold { font-weight: 600; }
    .wire-text-small { font-size: 12px; }
    .wire-text-large { font-size: 18px; }
  </style>
  
  <rect width="100%" height="100%" fill="#ffffff" />
  <text x="16" y="31" class="wire-text wire-text-bold">Slider Variants</text><text x="16" y="67" class="wire-text">Volume: 50%</text><g>
      <line x1="16" y1="88" x2="216" y2="88" stroke="#dee2e6" stroke-width="4" stroke-linecap="round" />
      <line x1="16" y1="88" x2="116" y2="88" stroke="#0d6efd" stroke-width="4" stroke-linecap="round" />
      <circle cx="116" cy="88" r="8" fill="#0d6efd" stroke="#ffffff" stroke-width="2" />
    </g><text x="16" y="127" class="wire-text">Brightness: 75%</text><g>
      <line x1="16" y1="148" x2="216" y2="148" stroke="#dee2e6" stroke-width="4" stroke-linecap="round" />
      <line x1="16" y1="148" x2="166" y2="148" stroke="#0d6efd" stroke-width="4" stroke-linecap="round" />
      <circle cx="166" cy="148" r="8" fill="#0d6efd" stroke="#ffffff" stroke-width="2" />
    </g><text x="16" y="187" class="wire-text">Disabled: 30%</text><g>
      <line x1="16" y1="208" x2="216" y2="208" stroke="#dee2e6" stroke-width="4" stroke-linecap="round" />
      <line x1="16" y1="208" x2="76" y2="208" stroke="#0d6efd" stroke-width="4" stroke-linecap="round" />
      <circle cx="76" cy="208" r="8" fill="#0d6efd" stroke="#ffffff" stroke-width="2" />
    </g><line x1="16" y1="236" x2="216" y2="236" stroke="#dee2e6" stroke-width="1" /><text x="16" y="268" class="wire-text wire-text-bold">Range Slider</text><text x="16" y="304" class="wire-text">Price Range: $20 - $80</text><g>
      <line x1="16" y1="325" x2="216" y2="325" stroke="#dee2e6" stroke-width="4" stroke-linecap="round" />
      <line x1="16" y1="325" x2="56" y2="325" stroke="#0d6efd" stroke-width="4" stroke-linecap="round" />
      <circle cx="56" cy="325" r="8" fill="#0d6efd" stroke="#ffffff" stroke-width="2" />
    </g>
</svg>