<svg xmlns="http://www.w3.org/2000/svg" width="800" height="730" viewBox="0 0 800 730" role="img">
  <style>
    .wire-text { font-family: system-ui, -apple-system, sans-serif; font-size: 14px; fill: #212529; }
    .wire-text-secondary { fill: #6c757d; }
    .wire-text-disabled { fill: #adb5bd; }
    .wire-text-bold { font-weight: 600; }
    .wire-text-small { font-size: 12px; }
    .wire-text-large { font-size: 18px; }
  </style>
  
  <rect width="100%" height="100%" fill="#ffffff" />
  <text x="16" y="31" class="wire-text wire-text-bold">Basic Stepper</text><line x1="16" y1="100" x2="216" y2="100" stroke="#dee2e6" stroke-width="1" /><text x="16" y="132" class="wire-text wire-text-bold">Checkout Stepper</text><rect x="16" y="153" width="768" height="444" rx="8" fill="#ffffff" stroke="#dee2e6" stroke-width="1" filter="url(#shadow)" /><text x="48" y="200" class="wire-text">Cart</text><text x="48" y="228" class="wire-text">Shipping</text><text x="48" y="256" class="wire-text">Payment</text><text x="48" y="284" class="wire-text">Confirm</text><rect x="32" y="329" width="736" height="252" fill="#f8f9fa" stroke="#dee2e6" stroke-width="1" /><text x="48" y="360" class="wire-text wire-text-bold">Shipping Information</text><text x="48" y="396" class="wire-text">Address:</text><g>
      <rect x="48" y="409" width="200" height="36" rx="4" fill="#ffffff" stroke="#dee2e6" stroke-width="1" />
      <text x="60" y="432" class="wire-text wire-text-secondary">123 Main St</text>
      
    </g><text x="48" y="468" class="wire-text">City:</text><g>
      <rect x="48" y="477" width="200" height="36" rx="4" fill="#ffffff" stroke="#dee2e6" stroke-width="1" />
      <text x="60" y="500" class="wire-text wire-text-secondary">New York</text>
      
    </g><text x="760" y="468" class="wire-text">ZIP:</text><g>
      <rect x="760" y="477" width="200" height="36" rx="4" fill="#ffffff" stroke="#dee2e6" stroke-width="1" />
      <text x="772" y="500" class="wire-text wire-text-secondary">10001</text>
      
    </g><g opacity="1">
      <rect x="48" y="529" width="100" height="36" rx="4" fill="#e9ecef" stroke="#dee2e6" stroke-width="1" />
      <text x="98" y="552" text-anchor="middle" class="wire-text" fill="#212529">Back</text>
    </g><g opacity="1">
      <rect x="156" y="529" width="100" height="36" rx="4" fill="#0d6efd" stroke="#dee2e6" stroke-width="1" />
      <text x="206" y="552" text-anchor="middle" class="wire-text" fill="#ffffff">Continue</text>
    </g><line x1="16" y1="613" x2="216" y2="613" stroke="#dee2e6" stroke-width="1" /><text x="16" y="645" class="wire-text wire-text-bold">Completed Stepper</text>
</svg>