<svg xmlns="http://www.w3.org/2000/svg" width="800" height="616" viewBox="0 0 800 616" role="img">
  <style>
    .wire-text { font-family: system-ui, -apple-system, sans-serif; font-size: 14px; fill: #212529; }
    .wire-text-secondary { fill: #6c757d; }
    .wire-text-disabled { fill: #adb5bd; }
    .wire-text-bold { font-weight: 600; }
    .wire-text-small { font-size: 12px; }
    .wire-text-large { font-size: 18px; }
  </style>
  
  <rect width="100%" height="100%" fill="#ffffff" />
  <text x="16" y="31" class="wire-text wire-text-bold">Switch Variants</text><g><rect x="16" y="52" width="44" height="24" rx="12" fill="#dee2e6" /><circle cx="28" cy="64" r="10" fill="#ffffff" /></g><text x="72" y="67" class="wire-text">Off</text><g><rect x="16" y="84" width="44" height="24" rx="12" fill="#0d6efd" /><circle cx="48" cy="96" r="10" fill="#ffffff" /></g><text x="72" y="99" class="wire-text">On</text><g><rect x="16" y="116" width="44" height="24" rx="12" fill="#dee2e6" /><circle cx="28" cy="128" r="10" fill="#ffffff" /></g><text x="72" y="131" class="wire-text">Disabled Off</text><g><rect x="16" y="148" width="44" height="24" rx="12" fill="#0d6efd" /><circle cx="48" cy="160" r="10" fill="#ffffff" /></g><text x="72" y="163" class="wire-text">Disabled On</text><line x1="16" y1="188" x2="216" y2="188" stroke="#dee2e6" stroke-width="1" /><text x="16" y="220" class="wire-text wire-text-bold">Settings Example</text><rect x="16" y="241" width="768" height="343" rx="8" fill="#ffffff" stroke="#dee2e6" stroke-width="1" filter="url(#shadow)" /><g><rect x="32" y="257" width="44" height="24" rx="12" fill="#0d6efd" /><circle cx="64" cy="269" r="10" fill="#ffffff" /></g><text x="88" y="272" class="wire-text wire-text-bold">Dark Mode</text><text x="88" y="294" class="wire-text">Enable dark theme</text><g><rect x="32" y="311" width="44" height="24" rx="12" fill="#dee2e6" /><circle cx="44" cy="323" r="10" fill="#ffffff" /></g><text x="88" y="326" class="wire-text wire-text-bold">Notifications</text><text x="88" y="348" class="wire-text">Receive push notifications</text><g><rect x="32" y="365" width="44" height="24" rx="12" fill="#0d6efd" /><circle cx="64" cy="377" r="10" fill="#ffffff" /></g><text x="88" y="380" class="wire-text wire-text-bold">Auto-save</text><text x="88" y="402" class="wire-text">Save changes automatically</text>
</svg>