<svg xmlns="http://www.w3.org/2000/svg" width="800" height="641" viewBox="0 0 800 641" role="img">
  <style>
    .wire-text { font-family: system-ui, -apple-system, sans-serif; font-size: 14px; fill: #212529; }
    .wire-text-secondary { fill: #6c757d; }
    .wire-text-disabled { fill: #adb5bd; }
    .wire-text-bold { font-weight: 600; }
    .wire-text-small { font-size: 12px; }
    .wire-text-large { font-size: 18px; }
  </style>
  
  <rect width="100%" height="100%" fill="#ffffff" />
  <text x="16" y="31" class="wire-text wire-text-bold">Text Input Variants</text><text x="16" y="67" class="wire-text">Default:</text><g>
      <rect x="16" y="80" width="200" height="36" rx="4" fill="#ffffff" stroke="#dee2e6" stroke-width="1" />
      <text x="28" y="103" class="wire-text wire-text-secondary">Enter text here...</text>
      
    </g><text x="16" y="139" class="wire-text">Required:</text><g>
      <rect x="16" y="152" width="200" height="36" rx="4" fill="#ffffff" stroke="#dee2e6" stroke-width="1" />
      <text x="28" y="175" class="wire-text wire-text-secondary">Required field</text>
      <text x="204" y="175" text-anchor="end" fill="#dc3545">*</text>
    </g><text x="16" y="211" class="wire-text">Disabled:</text><g>
      <rect x="16" y="224" width="200" height="36" rx="4" fill="#ffffff" stroke="#dee2e6" stroke-width="1" />
      <text x="28" y="247" class="wire-text wire-text-secondary">Cannot edit</text>
      
    </g><text x="16" y="283" class="wire-text">Read-only:</text><g>
      <rect x="16" y="296" width="200" height="36" rx="4" fill="#ffffff" stroke="#dee2e6" stroke-width="1" />
      <text x="28" y="319" class="wire-text wire-text-secondary">Read only value</text>
      
    </g><line x1="16" y1="348" x2="216" y2="348" stroke="#dee2e6" stroke-width="1" /><text x="16" y="380" class="wire-text wire-text-bold">Specialized Inputs</text><text x="16" y="416" class="wire-text">Number Input:</text><g>
      <rect x="16" y="429" width="200" height="36" rx="4" fill="#ffffff" stroke="#dee2e6" stroke-width="1" />
      <text x="28" y="452" class="wire-text wire-text-secondary">123</text>
      
    </g><text x="16" y="488" class="wire-text">Date Input:</text><g>
      <rect x="16" y="501" width="200" height="36" rx="4" fill="#ffffff" stroke="#dee2e6" stroke-width="1" />
      <text x="28" y="524" class="wire-text wire-text-secondary">📅</text>
      
    </g><text x="16" y="560" class="wire-text">Password Input:</text><g>
      <rect x="16" y="573" width="200" height="36" rx="4" fill="#ffffff" stroke="#dee2e6" stroke-width="1" />
      <text x="28" y="596" class="wire-text wire-text-secondary">••••</text>
      
    </g>
</svg>