<svg xmlns="http://www.w3.org/2000/svg" width="800" height="745" viewBox="0 0 800 745">
  <style>
    .wire-text { font-family: system-ui, -apple-system, sans-serif; font-size: 14px; fill: #212529; }
    .wire-text-secondary { fill: #6c757d; }
    .wire-text-disabled { fill: #adb5bd; }
    .wire-text-bold { font-weight: 600; }
    .wire-text-small { font-size: 12px; }
    .wire-text-large { font-size: 18px; }
  </style>
  
  <rect width="100%" height="100%" fill="#ffffff" />
  <g>
      <rect x="56" y="56" width="120" height="120" fill="#f8f9fa" stroke="#dee2e6" stroke-width="1" />
      <line x1="56" y1="56" x2="176" y2="176" stroke="#dee2e6" stroke-width="1" />
      <line x1="176" y1="56" x2="56" y2="176" stroke="#dee2e6" stroke-width="1" />
      <text x="116" y="121" text-anchor="middle" class="wire-text wire-text-secondary wire-text-small">Image</text>
    </g><rect x="56" y="200" width="688" height="344" rx="8" fill="#ffffff" stroke="#dee2e6" stroke-width="1" filter="url(#shadow)" /><text x="72" y="231" class="wire-text wire-text-bold">Welcome Back</text><text x="72" y="267" class="wire-text">Email Address</text><g>
      <rect x="72" y="280" width="200" height="36" rx="4" fill="#ffffff" stroke="#dee2e6" stroke-width="1" />
      <text x="84" y="303" class="wire-text wire-text-secondary">Enter your email</text>
      <text x="260" y="303" text-anchor="end" fill="#dc3545">*</text>
    </g><text x="72" y="347" class="wire-text">Password</text><g>
      <rect x="72" y="360" width="200" height="36" rx="4" fill="#ffffff" stroke="#dee2e6" stroke-width="1" />
      <text x="84" y="383" class="wire-text wire-text-secondary">••••</text>
      <text x="260" y="383" text-anchor="end" fill="#dc3545">*</text>
    </g><g><rect x="72" y="415" width="18" height="18" rx="2" fill="#ffffff" stroke="#dee2e6" stroke-width="1" /><text x="98" y="429" class="wire-text">Remember me</text></g><g opacity="1">
      <rect x="72" y="452" width="100" height="36" rx="4" fill="#0d6efd" stroke="#dee2e6" stroke-width="1" />
      <text x="122" y="475" text-anchor="middle" class="wire-text" fill="#ffffff">Sign In</text>
    </g><line x1="56" y1="568" x2="256" y2="568" stroke="#dee2e6" stroke-width="1" /><g opacity="1">
      <rect x="56" y="593" width="100" height="36" rx="4" fill="#e9ecef" stroke="#dee2e6" stroke-width="1" />
      <text x="106" y="616" text-anchor="middle" class="wire-text" fill="#212529">Google</text>
    </g><g opacity="1">
      <rect x="168" y="593" width="100" height="36" rx="4" fill="#e9ecef" stroke="#dee2e6" stroke-width="1" />
      <text x="218" y="616" text-anchor="middle" class="wire-text" fill="#212529">GitHub</text>
    </g><text x="56" y="668" class="wire-text">Don&apos;t have an account? Sign up</text>
</svg>